<svg width="76" height="114" viewBox="0 0 76 114" fill="none" xmlns="http://www.w3.org/2000/svg">
<path d="M1.07788 92.2016C1.07788 91.8302 1.35695 91.5396 1.73994 91.5396C2.12294 91.5396 2.39045 91.8302 2.39045 92.2016C2.39045 92.5731 2.11139 92.8637 1.73994 92.8637C1.36849 92.8637 1.07788 92.5731 1.07788 92.2016ZM2.60023 92.2016C2.60023 91.8302 2.8793 91.5396 3.26229 91.5396C3.64529 91.5396 3.91281 91.8302 3.91281 92.2016C3.91281 92.5731 3.63374 92.8637 3.26229 92.8637C2.89085 92.8637 2.60023 92.5731 2.60023 92.2016Z" fill="#231F20"/>
<path d="M2.22098 94.557L2.75601 94.2433V93.5928H4.26682V97.0801C4.26682 97.5343 4.51124 97.7768 4.96352 97.7768L5.1964 98.0097V99.405L4.96352 99.6379C4.40539 99.6379 3.905 99.4397 3.522 99.0913C3.10437 99.2549 2.69635 99.3242 2.33645 99.3242C1.02388 99.3242 0 98.4639 0 97.2668C0 96.3488 0.592774 95.5 2.21906 94.5589L2.22098 94.557ZM2.33645 97.7768C2.47502 97.7768 2.62707 97.7537 2.81375 97.696C2.77911 97.5093 2.75601 97.3015 2.75601 97.0801V95.9408L2.69828 95.9754C1.97848 96.3584 1.50118 96.7183 1.50118 97.1379C1.50118 97.4631 1.79179 97.7768 2.33838 97.7768H2.33645Z" fill="#231F20"/>
<path d="M5.12524 101.108C5.12524 100.737 5.40431 100.446 5.7642 100.446C6.1241 100.446 6.39162 100.737 6.39162 101.108C6.39162 101.48 6.11256 101.77 5.7642 101.77C5.41585 101.77 5.12524 101.48 5.12524 101.108ZM6.57638 101.108C6.57638 100.737 6.85545 100.446 7.21535 100.446C7.57525 100.446 7.84277 100.737 7.84277 101.108C7.84277 101.48 7.5637 101.77 7.21535 101.77C6.867 101.77 6.57638 101.48 6.57638 101.108Z" fill="#231F20"/>
<path d="M4.72681 98.0101L4.95968 97.7772C5.47162 97.7772 5.71604 97.5328 5.71604 97.0805V94.4072H7.22685V97.0805C7.22685 97.5347 7.47127 97.7772 7.98321 97.7772L8.21609 98.0101V99.4054L7.98321 99.6383C7.30961 99.6383 6.79767 99.3246 6.47241 98.7895C6.14716 99.3246 5.63521 99.6383 4.96161 99.6383L4.72873 99.4054V98.0101H4.72681Z" fill="#231F20"/>
<path d="M9.0166 92.4438C9.0166 92.0724 9.29567 91.7817 9.67866 91.7817C10.0617 91.7817 10.3292 92.0724 10.3292 92.4438C10.3292 92.8152 10.0501 93.1059 9.67866 93.1059C9.30722 93.1059 9.0166 92.8152 9.0166 92.4438ZM10.539 92.4438C10.539 92.0724 10.818 91.7817 11.201 91.7817C11.584 91.7817 11.8515 92.0724 11.8515 92.4438C11.8515 92.8152 11.5725 93.1059 11.201 93.1059C10.8296 93.1059 10.539 92.8152 10.539 92.4438Z" fill="#231F20"/>
<path d="M12.5138 95.9874C12.5138 96.534 12.3387 97.1845 11.9557 97.7772H12.8622L13.0951 98.0101V99.4054L12.8622 99.6383C11.8518 99.6383 11.0492 99.4516 10.3987 99.1379C9.74819 99.4516 8.95718 99.6383 7.98142 99.6383L7.74854 99.4054V98.0101L7.98142 97.7772H8.85326C8.48181 97.1845 8.32977 96.534 8.32977 95.9874C8.32977 94.7441 9.16696 93.93 10.4218 93.9415C11.6766 93.9415 12.5138 94.7556 12.5138 95.9874ZM10.4218 97.5559C10.8048 97.2999 11.003 96.8592 11.003 96.4166C11.003 95.9393 10.7701 95.6852 10.4218 95.6852C10.0734 95.6852 9.84057 95.9412 9.84057 96.4166C9.84057 96.8573 10.0388 97.2999 10.4218 97.5559Z" fill="#231F20"/>
<path d="M13.6125 93.0696C13.6125 92.6519 13.9378 92.3267 14.3689 92.3267C14.8 92.3267 15.1118 92.6519 15.1118 93.0696C15.1118 93.4872 14.7866 93.8259 14.3689 93.8259C13.9513 93.8259 13.6125 93.5007 13.6125 93.0696Z" fill="#231F20"/>
<path d="M12.6272 98.01L12.8601 97.7771C13.372 97.7771 13.6164 97.5326 13.6164 97.0804V94.4071H15.1272V97.0804C15.1272 97.5346 15.3717 97.7771 15.8836 97.7771L16.1165 98.01V99.4053L15.8836 99.6382C15.21 99.6382 14.6981 99.3244 14.3728 98.7894C14.0475 99.3244 13.5356 99.6382 12.862 99.6382L12.6291 99.4053V98.01H12.6272ZM15.6488 98.01L15.8817 97.7771H16.5784V91.501H18.0892V99.6362H15.8817L15.6488 99.4034V98.008V98.01ZM18.7378 99.6362V91.501H20.2486V99.6362H18.7378ZM24.0131 94.4071L24.3037 93.2908C26.0936 94.0934 26.9654 95.5099 26.9654 96.9861C26.9654 98.4622 26.0358 99.6362 24.6867 99.6362C23.3376 99.6362 22.4195 98.5084 22.4195 97.1497C22.4195 96.1277 22.9315 95.1385 24.0112 94.4071H24.0131ZM25.4527 96.8013C25.4411 96.4183 25.2545 95.9526 24.9061 95.5234C24.2209 95.8717 23.9303 96.453 23.9303 96.9418C23.9303 97.4306 24.1978 97.779 24.6732 97.779C25.1967 97.779 25.4758 97.3383 25.4527 96.8032V96.8013ZM29.8234 99.6362H27.6159V91.501H29.1267V97.7771H29.8234L30.0563 98.01V99.4053L29.8234 99.6382V99.6362ZM32.6102 97.7771L32.8431 98.01V99.4053L32.6102 99.6382H29.8215L29.5886 99.4053V98.01L29.8215 97.7771H32.6102Z" fill="#231F20"/>
<path d="M32.7681 101.108C32.7681 100.737 33.0471 100.446 33.407 100.446C33.7669 100.446 34.0344 100.737 34.0344 101.108C34.0344 101.48 33.7554 101.77 33.407 101.77C33.0587 101.77 32.7681 101.48 32.7681 101.108ZM34.2211 101.108C34.2211 100.737 34.5002 100.446 34.8601 100.446C35.22 100.446 35.4875 100.737 35.4875 101.108C35.4875 101.48 35.2085 101.77 34.8601 101.77C34.5118 101.77 34.2211 101.48 34.2211 101.108Z" fill="#231F20"/>
<path d="M32.3699 98.01L32.6027 97.7771C33.1147 97.7771 33.3591 97.5326 33.3591 97.0804V94.4071H34.8699V97.0804C34.8699 97.5346 35.1143 97.7771 35.6263 97.7771L35.8592 98.01V99.4053L35.6263 99.6382C34.9527 99.6382 34.4407 99.3244 34.1155 98.7894C33.7902 99.3244 33.2783 99.6382 32.6047 99.6382L32.3718 99.4053V98.01H32.3699ZM35.3915 98.01L35.6244 97.7771C35.811 97.7771 35.9727 97.754 36.1132 97.7193L36.1248 97.6847C36.6482 95.6158 37.2872 94.3494 38.6229 94.3494C39.8662 94.3494 40.3435 95.3829 40.7726 96.8821C40.9247 97.4056 41.1094 97.7771 41.4924 97.7771L41.7253 98.01V99.4053L41.4924 99.6382C40.8766 99.6382 40.3993 99.3591 40.0278 98.8818L39.5621 99.7998C38.8057 99.6728 37.9704 99.4399 37.1563 99.08C36.7849 99.4399 36.2845 99.6382 35.6224 99.6382L35.3896 99.4053V98.01H35.3915ZM39.5986 98.1485C39.4832 97.881 39.3889 97.6019 39.308 97.2882C39.1213 96.58 38.9597 96.2066 38.5517 96.2066C38.1687 96.2066 38.0166 96.555 37.7953 97.2286L37.7029 97.5076C38.2149 97.7752 38.8769 97.9965 39.5967 98.1466L39.5986 98.1485ZM41.2576 98.01L41.4905 97.7771C41.9447 97.7771 42.1872 97.5326 42.1872 97.0804V91.501H43.698V97.0804C43.698 97.5346 43.9424 97.7771 44.3947 97.7771L44.6276 98.01V99.4053L44.3947 99.6382C43.7558 99.6382 43.2554 99.3244 42.9417 98.801C42.628 99.3244 42.1276 99.6382 41.4886 99.6382L41.2557 99.4053V98.01H41.2576ZM44.1618 98.01L44.3947 97.7771H45.0914V91.501H46.6022V99.6362H44.3947L44.1618 99.4034V98.008V98.01ZM48.1919 100.962L48.4479 100.729C49.1215 100.09 49.3198 99.8229 49.3198 98.8933V94.4071H50.8306V99.0088C50.8306 100.416 50.4707 101.043 49.4352 102.054L49.2967 102.192L48.1919 100.96V100.962ZM53.6867 99.6362H51.4791V91.501H52.99V97.7771H53.6867L53.9195 98.01V99.4053L53.6867 99.6382V99.6362ZM56.4754 97.7771L56.7083 98.01V99.4053L56.4754 99.6382H53.6867L53.4538 99.4053V98.01L53.6867 97.7771H56.4754ZM59.2641 97.7771L59.497 98.01V99.4053L59.2641 99.6382H56.4754L56.2425 99.4053V98.01L56.4754 97.7771H59.2641ZM62.0529 97.7771L62.2857 98.01V99.4053L62.0529 99.6382H59.2641L59.0312 99.4053V98.01L59.2641 97.7771H62.0529ZM67.7593 97.2651C67.8517 97.6019 68.2 97.7771 68.7812 97.7771L69.0141 98.01V99.4053L68.7812 99.6382C67.7593 99.6382 67.0491 99.08 66.7469 98.1851C65.979 98.8587 64.8647 99.6382 63.4232 99.6382H62.0509L61.8181 99.4053V98.01L62.0509 97.7771H63.7715C64.7242 97.7771 65.469 97.2998 66.0964 96.8937C65.213 96.5569 64.5279 96.1258 63.3885 96.2778L62.4012 96.4048V94.6034L63.3885 94.4764C65.469 94.2089 66.1542 95.4753 68.0845 95.4753H68.3867V97.242H67.8286C67.8055 97.242 67.7824 97.2536 67.7593 97.2651ZM68.5503 99.4053V98.01L68.7832 97.7771C69.2374 97.7771 69.4799 97.5326 69.4799 97.0804V94.64H70.9907V95.7562C71.8163 94.7574 72.7113 94.2916 73.5947 94.2916C74.9553 94.2916 76.0004 95.4425 76.0004 96.9187C76.0004 98.3949 74.9784 99.6382 72.8633 99.6382H71.3063C70.7366 99.6382 70.3074 99.4399 70.0284 99.0916C69.7609 99.463 69.3894 99.6382 68.7851 99.6382L68.5522 99.4053H68.5503ZM73.3271 97.7771C74.0354 97.7771 74.5011 97.4518 74.5011 96.8937C74.5011 96.3933 74.1297 96.0334 73.56 96.0334C72.8171 96.0334 71.8856 96.6493 71.1196 97.7771H73.3271Z" fill="#231F20"/>
<path d="M1.07788 92.2016C1.07788 91.8302 1.35695 91.5396 1.73994 91.5396C2.12294 91.5396 2.39045 91.8302 2.39045 92.2016C2.39045 92.5731 2.11139 92.8637 1.73994 92.8637C1.36849 92.8637 1.07788 92.5731 1.07788 92.2016ZM2.60023 92.2016C2.60023 91.8302 2.8793 91.5396 3.26229 91.5396C3.64529 91.5396 3.91281 91.8302 3.91281 92.2016C3.91281 92.5731 3.63374 92.8637 3.26229 92.8637C2.89085 92.8637 2.60023 92.5731 2.60023 92.2016Z" fill="#231F20"/>
<path d="M2.22098 94.557L2.75601 94.2433V93.5928H4.26682V97.0801C4.26682 97.5343 4.51124 97.7768 4.96352 97.7768L5.1964 98.0097V99.405L4.96352 99.6379C4.40539 99.6379 3.905 99.4397 3.522 99.0913C3.10437 99.2549 2.69635 99.3242 2.33645 99.3242C1.02388 99.3242 0 98.4639 0 97.2668C0 96.3488 0.592774 95.5 2.21906 94.5589L2.22098 94.557ZM2.33645 97.7768C2.47502 97.7768 2.62707 97.7537 2.81375 97.696C2.77911 97.5093 2.75601 97.3015 2.75601 97.0801V95.9408L2.69828 95.9754C1.97848 96.3584 1.50118 96.7183 1.50118 97.1379C1.50118 97.4631 1.79179 97.7768 2.33838 97.7768H2.33645Z" fill="#231F20"/>
<path d="M5.12524 101.108C5.12524 100.737 5.40431 100.446 5.7642 100.446C6.1241 100.446 6.39162 100.737 6.39162 101.108C6.39162 101.48 6.11256 101.77 5.7642 101.77C5.41585 101.77 5.12524 101.48 5.12524 101.108ZM6.57638 101.108C6.57638 100.737 6.85545 100.446 7.21535 100.446C7.57525 100.446 7.84277 100.737 7.84277 101.108C7.84277 101.48 7.5637 101.77 7.21535 101.77C6.867 101.77 6.57638 101.48 6.57638 101.108Z" fill="#231F20"/>
<path d="M4.72681 98.0101L4.95968 97.7772C5.47162 97.7772 5.71604 97.5328 5.71604 97.0805V94.4072H7.22685V97.0805C7.22685 97.5347 7.47127 97.7772 7.98321 97.7772L8.21609 98.0101V99.4054L7.98321 99.6383C7.30961 99.6383 6.79767 99.3246 6.47241 98.7895C6.14716 99.3246 5.63521 99.6383 4.96161 99.6383L4.72873 99.4054V98.0101H4.72681Z" fill="#231F20"/>
<path d="M9.0166 92.4438C9.0166 92.0724 9.29567 91.7817 9.67866 91.7817C10.0617 91.7817 10.3292 92.0724 10.3292 92.4438C10.3292 92.8152 10.0501 93.1059 9.67866 93.1059C9.30722 93.1059 9.0166 92.8152 9.0166 92.4438ZM10.539 92.4438C10.539 92.0724 10.818 91.7817 11.201 91.7817C11.584 91.7817 11.8515 92.0724 11.8515 92.4438C11.8515 92.8152 11.5725 93.1059 11.201 93.1059C10.8296 93.1059 10.539 92.8152 10.539 92.4438Z" fill="#231F20"/>
<path d="M12.5138 95.9874C12.5138 96.534 12.3387 97.1845 11.9557 97.7772H12.8622L13.0951 98.0101V99.4054L12.8622 99.6383C11.8518 99.6383 11.0492 99.4516 10.3987 99.1379C9.74819 99.4516 8.95718 99.6383 7.98142 99.6383L7.74854 99.4054V98.0101L7.98142 97.7772H8.85326C8.48181 97.1845 8.32977 96.534 8.32977 95.9874C8.32977 94.7441 9.16696 93.93 10.4218 93.9415C11.6766 93.9415 12.5138 94.7556 12.5138 95.9874ZM10.4218 97.5559C10.8048 97.2999 11.003 96.8592 11.003 96.4166C11.003 95.9393 10.7701 95.6852 10.4218 95.6852C10.0734 95.6852 9.84057 95.9412 9.84057 96.4166C9.84057 96.8573 10.0388 97.2999 10.4218 97.5559Z" fill="#231F20"/>
<path d="M13.6125 93.0696C13.6125 92.6519 13.9378 92.3267 14.3689 92.3267C14.8 92.3267 15.1118 92.6519 15.1118 93.0696C15.1118 93.4872 14.7866 93.8259 14.3689 93.8259C13.9513 93.8259 13.6125 93.5007 13.6125 93.0696Z" fill="#231F20"/>
<path d="M12.6272 98.01L12.8601 97.7771C13.372 97.7771 13.6164 97.5326 13.6164 97.0804V94.4071H15.1272V97.0804C15.1272 97.5346 15.3717 97.7771 15.8836 97.7771L16.1165 98.01V99.4053L15.8836 99.6382C15.21 99.6382 14.6981 99.3244 14.3728 98.7894C14.0475 99.3244 13.5356 99.6382 12.862 99.6382L12.6291 99.4053V98.01H12.6272ZM15.6488 98.01L15.8817 97.7771H16.5784V91.501H18.0892V99.6362H15.8817L15.6488 99.4034V98.008V98.01ZM18.7378 99.6362V91.501H20.2486V99.6362H18.7378ZM24.0131 94.4071L24.3037 93.2908C26.0936 94.0934 26.9654 95.5099 26.9654 96.9861C26.9654 98.4622 26.0358 99.6362 24.6867 99.6362C23.3376 99.6362 22.4195 98.5084 22.4195 97.1497C22.4195 96.1277 22.9315 95.1385 24.0112 94.4071H24.0131ZM25.4527 96.8013C25.4411 96.4183 25.2545 95.9526 24.9061 95.5234C24.2209 95.8717 23.9303 96.453 23.9303 96.9418C23.9303 97.4306 24.1978 97.779 24.6732 97.779C25.1967 97.779 25.4758 97.3383 25.4527 96.8032V96.8013ZM29.8234 99.6362H27.6159V91.501H29.1267V97.7771H29.8234L30.0563 98.01V99.4053L29.8234 99.6382V99.6362ZM32.6102 97.7771L32.8431 98.01V99.4053L32.6102 99.6382H29.8215L29.5886 99.4053V98.01L29.8215 97.7771H32.6102Z" fill="#231F20"/>
<path d="M32.7681 101.108C32.7681 100.737 33.0471 100.446 33.407 100.446C33.7669 100.446 34.0344 100.737 34.0344 101.108C34.0344 101.48 33.7554 101.77 33.407 101.77C33.0587 101.77 32.7681 101.48 32.7681 101.108ZM34.2211 101.108C34.2211 100.737 34.5002 100.446 34.8601 100.446C35.22 100.446 35.4875 100.737 35.4875 101.108C35.4875 101.48 35.2085 101.77 34.8601 101.77C34.5118 101.77 34.2211 101.48 34.2211 101.108Z" fill="#231F20"/>
<path d="M32.3699 98.01L32.6027 97.7771C33.1147 97.7771 33.3591 97.5326 33.3591 97.0804V94.4071H34.8699V97.0804C34.8699 97.5346 35.1143 97.7771 35.6263 97.7771L35.8592 98.01V99.4053L35.6263 99.6382C34.9527 99.6382 34.4407 99.3244 34.1155 98.7894C33.7902 99.3244 33.2783 99.6382 32.6047 99.6382L32.3718 99.4053V98.01H32.3699ZM35.3915 98.01L35.6244 97.7771C35.811 97.7771 35.9727 97.754 36.1132 97.7193L36.1248 97.6847C36.6482 95.6158 37.2872 94.3494 38.6229 94.3494C39.8662 94.3494 40.3435 95.3829 40.7726 96.8821C40.9247 97.4056 41.1094 97.7771 41.4924 97.7771L41.7253 98.01V99.4053L41.4924 99.6382C40.8766 99.6382 40.3993 99.3591 40.0278 98.8818L39.5621 99.7998C38.8057 99.6728 37.9704 99.4399 37.1563 99.08C36.7849 99.4399 36.2845 99.6382 35.6224 99.6382L35.3896 99.4053V98.01H35.3915ZM39.5986 98.1485C39.4832 97.881 39.3889 97.6019 39.308 97.2882C39.1213 96.58 38.9597 96.2066 38.5517 96.2066C38.1687 96.2066 38.0166 96.555 37.7953 97.2286L37.7029 97.5076C38.2149 97.7752 38.8769 97.9965 39.5967 98.1466L39.5986 98.1485ZM41.2576 98.01L41.4905 97.7771C41.9447 97.7771 42.1872 97.5326 42.1872 97.0804V91.501H43.698V97.0804C43.698 97.5346 43.9424 97.7771 44.3947 97.7771L44.6276 98.01V99.4053L44.3947 99.6382C43.7558 99.6382 43.2554 99.3244 42.9417 98.801C42.628 99.3244 42.1276 99.6382 41.4886 99.6382L41.2557 99.4053V98.01H41.2576ZM44.1618 98.01L44.3947 97.7771H45.0914V91.501H46.6022V99.6362H44.3947L44.1618 99.4034V98.008V98.01ZM48.1919 100.962L48.4479 100.729C49.1215 100.09 49.3198 99.8229 49.3198 98.8933V94.4071H50.8306V99.0088C50.8306 100.416 50.4707 101.043 49.4352 102.054L49.2967 102.192L48.1919 100.96V100.962ZM53.6867 99.6362H51.4791V91.501H52.99V97.7771H53.6867L53.9195 98.01V99.4053L53.6867 99.6382V99.6362ZM56.4754 97.7771L56.7083 98.01V99.4053L56.4754 99.6382H53.6867L53.4538 99.4053V98.01L53.6867 97.7771H56.4754ZM59.2641 97.7771L59.497 98.01V99.4053L59.2641 99.6382H56.4754L56.2425 99.4053V98.01L56.4754 97.7771H59.2641ZM62.0529 97.7771L62.2857 98.01V99.4053L62.0529 99.6382H59.2641L59.0312 99.4053V98.01L59.2641 97.7771H62.0529ZM67.7593 97.2651C67.8517 97.6019 68.2 97.7771 68.7812 97.7771L69.0141 98.01V99.4053L68.7812 99.6382C67.7593 99.6382 67.0491 99.08 66.7469 98.1851C65.979 98.8587 64.8647 99.6382 63.4232 99.6382H62.0509L61.8181 99.4053V98.01L62.0509 97.7771H63.7715C64.7242 97.7771 65.469 97.2998 66.0964 96.8937C65.213 96.5569 64.5279 96.1258 63.3885 96.2778L62.4012 96.4048V94.6034L63.3885 94.4764C65.469 94.2089 66.1542 95.4753 68.0845 95.4753H68.3867V97.242H67.8286C67.8055 97.242 67.7824 97.2536 67.7593 97.2651ZM68.5503 99.4053V98.01L68.7832 97.7771C69.2374 97.7771 69.4799 97.5326 69.4799 97.0804V94.64H70.9907V95.7562C71.8163 94.7574 72.7113 94.2916 73.5947 94.2916C74.9553 94.2916 76.0004 95.4425 76.0004 96.9187C76.0004 98.3949 74.9784 99.6382 72.8633 99.6382H71.3063C70.7366 99.6382 70.3074 99.4399 70.0284 99.0916C69.7609 99.463 69.3894 99.6382 68.7851 99.6382L68.5522 99.4053H68.5503ZM73.3271 97.7771C74.0354 97.7771 74.5011 97.4518 74.5011 96.8937C74.5011 96.3933 74.1297 96.0334 73.56 96.0334C72.8171 96.0334 71.8856 96.6493 71.1196 97.7771H73.3271Z" fill="#231F20"/>
<path d="M2.7964 110.699C1.36258 110.699 0.348319 109.9 0.327148 108.722H1.32024C1.38183 109.315 1.80139 109.91 2.79448 109.91C3.69519 109.91 4.2283 109.398 4.2283 108.722C4.2283 106.798 0.367569 108.026 0.367569 105.374C0.367569 104.196 1.32024 103.397 2.73289 103.397C4.14554 103.397 4.98659 104.144 5.09822 105.231H4.07433C4.01274 104.75 3.56239 104.207 2.69247 104.198C1.92456 104.178 1.32024 104.577 1.32024 105.345C1.32024 107.188 5.17135 106.041 5.17135 108.684C5.17135 109.698 4.34185 110.701 2.7964 110.701V110.699Z" fill="#231F20"/>
<path d="M8.21977 110.72C6.63198 110.72 5.42334 109.594 5.42334 107.812C5.42334 106.03 6.6724 104.925 8.26019 104.925C9.84798 104.925 11.097 106.041 11.097 107.812C11.097 109.582 9.81718 110.72 8.21977 110.72ZM8.21977 109.902C9.19169 109.902 10.1444 109.236 10.1444 107.812C10.1444 106.387 9.21286 105.733 8.25057 105.733C7.28827 105.733 6.37602 106.399 6.37602 107.812C6.37602 109.224 7.24593 109.902 8.21977 109.902Z" fill="#231F20"/>
<path d="M11.5457 103.05H12.4772V105.826C12.8467 105.231 13.5415 104.913 14.3305 104.913C15.5796 104.913 16.5727 105.712 16.5727 107.321V110.629H15.6508V107.454C15.6508 106.307 15.0253 105.724 14.0842 105.724C13.1431 105.724 12.4772 106.316 12.4772 107.525V110.627H11.5457V103.048V103.05Z" fill="#231F20"/>
<path d="M19.6327 104.925C20.6777 104.925 21.3937 105.456 21.7228 106.041V105.017H22.6658V110.629H21.7228V109.584C21.386 110.189 20.6585 110.722 19.623 110.722C18.1276 110.722 16.9709 109.544 16.9709 107.802C16.9709 106.06 18.1276 104.925 19.6327 104.925ZM19.8174 105.733C18.7935 105.733 17.9236 106.48 17.9236 107.802C17.9236 109.124 18.7935 109.902 19.8174 109.902C20.8413 109.902 21.7228 109.134 21.7228 107.812C21.7228 106.489 20.8413 105.733 19.8174 105.733Z" fill="#231F20"/>
<path d="M24.4037 110.628H23.4722V105.016H24.4037V105.926C24.7212 105.302 25.3256 104.912 26.2166 104.912V105.874H25.9703C25.0792 105.874 24.4037 106.272 24.4037 107.573V110.626V110.628Z" fill="#231F20"/>
<path d="M31.4978 104.925C33.0028 104.925 34.1595 106.051 34.1595 107.802C34.1595 109.553 33.0028 110.722 31.4978 110.722C30.4739 110.722 29.7464 110.169 29.3981 109.596V113.293H28.4666V105.017H29.3981V106.051C29.7349 105.456 30.4739 104.925 31.4978 104.925ZM31.3034 105.733C30.2891 105.733 29.3981 106.511 29.3981 107.812C29.3981 109.113 30.2891 109.902 31.3034 109.902C32.3177 109.902 33.2087 109.122 33.2087 107.802C33.2087 106.482 32.3388 105.733 31.3034 105.733Z" fill="#231F20"/>
<path d="M39.5851 110.627H38.6536V109.798C38.2957 110.381 37.6086 110.708 36.8618 110.708C35.5704 110.708 34.5581 109.909 34.5581 108.302V105.015H35.48V108.179C35.48 109.317 36.1055 109.9 37.0466 109.9C37.9877 109.9 38.6556 109.305 38.6556 108.096V105.013H39.5871V110.625L39.5851 110.627Z" fill="#231F20"/>
<path d="M41.3114 110.628H40.3799V105.016H41.3114V105.926C41.6289 105.302 42.2333 104.912 43.1244 104.912V105.874H42.878C41.9869 105.874 41.3114 106.272 41.3114 107.573V110.626V110.628Z" fill="#231F20"/>
<path d="M45.8475 110.72C44.2501 110.72 43.0723 109.594 43.0723 107.812C43.0723 106.03 44.2097 104.925 45.8475 104.925C47.4854 104.925 48.542 106.072 48.542 107.608C48.542 107.812 48.5323 107.977 48.5112 108.17H44.0249C44.0962 109.307 44.8949 109.933 45.8475 109.933C46.6866 109.933 47.2198 109.501 47.4238 108.899H48.4265C48.1397 109.923 47.239 110.722 45.8456 110.722L45.8475 110.72ZM44.0346 107.413H47.5777C47.5874 106.316 46.7675 105.714 45.8052 105.714C44.8929 105.714 44.1366 106.318 44.0326 107.413H44.0346Z" fill="#231F20"/>
<path d="M50.2878 105.015H51.2405L52.5319 109.727L53.9253 105.015H54.878L56.2406 109.736L57.5108 105.015H58.4327L56.6813 110.627H55.719L54.368 106.172L53.015 110.627H52.0527L50.2917 105.015H50.2878Z" fill="#231F20"/>
<path d="M60.8824 104.925C61.9275 104.925 62.6434 105.456 62.9725 106.041V105.017H63.9156V110.629H62.9725V109.584C62.6357 110.189 61.9082 110.722 60.8728 110.722C59.3774 110.722 58.2207 109.544 58.2207 107.802C58.2207 106.06 59.3774 104.925 60.8824 104.925ZM61.0672 105.733C60.0433 105.733 59.1715 106.48 59.1715 107.802C59.1715 109.124 60.0414 109.902 61.0672 109.902C62.093 109.902 62.9725 109.134 62.9725 107.812C62.9725 106.489 62.0911 105.733 61.0672 105.733Z" fill="#231F20"/>
<path d="M64.9262 105.783H64.1987V105.015H64.9262V103.603H65.8577V105.015H67.3223V105.783H65.8577V109.091C65.8577 109.644 66.0617 109.838 66.6353 109.838H67.3204V110.627H66.4813C65.4882 110.627 64.9243 110.217 64.9243 109.091V105.783H64.9262Z" fill="#231F20"/>
<path d="M70.0956 110.72C68.4982 110.72 67.3203 109.594 67.3203 107.812C67.3203 106.03 68.4577 104.925 70.0956 104.925C71.7334 104.925 72.79 106.072 72.79 107.608C72.79 107.812 72.7804 107.977 72.7592 108.17H68.273C68.3442 109.307 69.1429 109.933 70.0956 109.933C70.9347 109.933 71.4678 109.501 71.6718 108.899H72.6745C72.3878 109.923 71.4871 110.722 70.0937 110.722L70.0956 110.72ZM68.2826 107.413H71.8258C71.8354 106.316 71.0155 105.714 70.0532 105.714C69.141 105.714 68.3846 106.318 68.2807 107.413H68.2826Z" fill="#231F20"/>
<path d="M74.1796 110.628H73.248V105.016H74.1796V105.926C74.4971 105.302 75.1014 104.912 75.9925 104.912V105.874H75.7462C74.8551 105.874 74.1796 106.272 74.1796 107.573V110.626V110.628Z" fill="#231F20"/>
<g opacity="0.69">
<mask id="mask0_395_6166" style="mask-type:luminance" maskUnits="userSpaceOnUse" x="6" y="51" width="34" height="30">
<path d="M39.0327 51.1152H6.62256V80.5461H39.0327V51.1152Z" fill="white"/>
</mask>
<g mask="url(#mask0_395_6166)">
<path d="M39.0327 80.0361C37.3391 80.3729 35.5819 80.5442 33.7901 80.5442C32.1196 80.5442 30.4798 80.3922 28.8939 80.1035C24.4039 79.2894 20.2929 77.3744 16.8595 74.6531C11.2858 70.2342 7.47322 63.6752 6.67837 56.2174C6.67837 56.2116 6.67067 56.2058 6.67837 56.2001C6.65335 56.0172 6.63411 55.8267 6.62256 55.6439V55.6208C6.70724 54.8259 7.38085 54.2004 8.20265 54.2004C8.36046 54.2004 8.50866 54.2235 8.65493 54.2678C9.15532 54.414 9.55371 54.8067 9.71345 55.309V55.3148C9.73078 55.4129 9.75771 55.5168 9.78081 55.6208V55.6342C10.491 58.8406 11.8247 61.8199 13.6531 64.4258C12.7485 62.1317 12.1731 59.6643 11.9941 57.0892C11.9518 56.5195 11.9344 55.9383 11.9344 55.3571C11.9344 54.3852 11.9883 53.4248 12.098 52.4817V52.4529C12.1115 52.3413 12.1288 52.2393 12.1423 52.1276V52.1103C12.2943 51.5349 12.8082 51.1191 13.4337 51.1191C13.5492 51.1191 13.6608 51.1307 13.7647 51.1615C14.3267 51.3039 14.7443 51.7985 14.7674 52.4048V52.4529C14.7501 52.5626 14.7366 52.6723 14.7232 52.782V52.7878C14.6327 53.6327 14.5904 54.4891 14.5904 55.3571C14.5904 56.4406 14.6577 57.5107 14.7905 58.5577C15.2005 61.7217 16.2109 64.6952 17.7044 67.3685C18.3337 68.5001 19.0497 69.576 19.8445 70.5864C19.8445 70.5864 19.8522 70.5864 19.8522 70.5922C21.5593 72.765 23.6148 74.6377 25.9339 76.1292C29.4348 78.381 33.5399 79.7686 37.9453 80.0015C38.3052 80.0188 38.667 80.0323 39.0346 80.0381" fill="#56AEBF"/>
</g>
</g>
<g opacity="0.69">
<mask id="mask1_395_6166" style="mask-type:luminance" maskUnits="userSpaceOnUse" x="17" y="37" width="43" height="40">
<path d="M59.2775 37.7393H17.3618V76.9451H59.2775V37.7393Z" fill="white"/>
</mask>
<g mask="url(#mask1_395_6166)">
<path d="M42.6914 43.4091C41.8446 40.3971 45.2261 37.7393 48.3612 37.7393C49.3293 37.7393 50.2435 37.9837 51.0403 38.4071C51.1712 38.5091 51.3001 38.6188 51.4291 38.7189C51.4425 38.7323 51.456 38.7458 51.4695 38.7535C51.7813 39.0133 52.0892 39.2847 52.3817 39.558C52.3817 39.5657 52.3894 39.5657 52.3894 39.5657C52.5934 39.7562 52.7974 39.9468 52.9957 40.1508C56.1982 43.3668 58.3942 47.6009 59.0678 52.3161C59.2044 53.3111 59.2795 54.3331 59.2795 55.3685C59.2795 60.1396 57.734 64.5469 55.1147 68.119C55.0608 68.194 55.0069 68.2691 54.9453 68.3364C54.8029 68.5347 54.6527 68.7252 54.4949 68.9157C54.2832 69.1813 54.0657 69.4335 53.8483 69.6856C53.6366 69.9242 53.4249 70.1494 53.2074 70.3746C52.9553 70.6344 52.7031 70.8865 52.4375 71.1309C52.4375 71.1309 52.4331 71.1335 52.4241 71.1386C52.4106 71.1598 52.3971 71.1733 52.3837 71.1868C52.3298 71.2349 52.274 71.2811 52.2258 71.3292C48.3959 74.8185 43.2996 76.9451 37.7048 76.9451C37.1178 76.9451 36.5404 76.924 35.9669 76.8759C27.3389 76.1868 20.1371 70.4227 17.3638 62.5665C19.2787 66.4176 23.2511 69.0601 27.8451 69.0601C27.9952 69.0601 28.1434 69.0601 28.2955 69.0466C28.4456 69.0466 28.5957 69.0389 28.7381 69.0197C28.9017 69.012 29.0653 68.9985 29.2289 68.9793C35.0488 68.2979 39.5601 63.344 39.5601 57.347C39.5601 54.5814 38.6055 52.0448 37.0119 50.0413C37.0042 50.0355 36.9985 50.0278 36.9908 50.022C36.8753 49.8719 36.7521 49.7218 36.6212 49.5851C36.4576 49.3195 36.3691 49.0058 36.3691 48.6729C36.3691 47.699 37.1659 46.908 38.1417 46.908C38.1417 46.908 38.8095 46.0362 40.2029 48.7037C41.5944 51.3711 43.6191 46.7021 42.6933 43.411" fill="#2C6C8D"/>
</g>
</g>
<g opacity="0.69">
<mask id="mask2_395_6166" style="mask-type:luminance" maskUnits="userSpaceOnUse" x="16" y="0" width="30" height="70">
<path d="M45.7552 0H16.1011V69.0582H45.7552V0Z" fill="white"/>
</mask>
<g mask="url(#mask2_395_6166)">
<path d="M45.6012 13.534C45.5396 14.0517 45.4511 14.5694 45.3491 15.089C45.1855 15.8647 44.9757 16.6499 44.7159 17.4197C44.2174 18.919 43.5438 20.3778 42.6778 21.727C42.2005 22.4776 41.6693 23.1993 41.0707 23.8671C41.0014 23.9499 40.9264 24.0307 40.8533 24.1115C40.4299 24.5754 39.9795 25.0103 39.5041 25.4203C38.0318 26.6809 36.8058 27.239 35.8243 27.8991C35.7974 27.9126 35.7762 27.9338 35.7492 27.9472C34.9986 28.4727 34.3924 29.0731 33.9363 30.1143C33.2627 31.6482 33.4455 32.8954 33.738 34.156C34.0787 35.6071 34.5772 37.0737 34.1076 38.9867C33.2415 42.5511 30.0582 43.4518 27.4485 45.6381C26.8422 46.15 26.2706 46.7274 25.7587 47.4222C24.1362 49.6432 23.428 52.5339 23.428 55.4843C23.428 55.7576 23.4357 56.0367 23.4492 56.31C23.4626 56.5948 23.4761 56.8816 23.5108 57.1683C23.5108 57.2165 23.5108 57.2646 23.5185 57.3108C23.5261 57.3589 23.5262 57.3993 23.5319 57.4474C23.5319 57.4551 23.5396 57.4609 23.5396 57.4686V57.482C23.5993 58.1229 23.7032 58.7561 23.8322 59.3835C23.8803 59.6568 23.9419 59.9282 24.0092 60.1938C24.0304 60.2823 24.0496 60.3709 24.0689 60.4536C24.1382 60.7192 24.2132 60.979 24.2941 61.2369C24.3826 61.5372 24.4788 61.8374 24.5866 62.1299C24.6886 62.4302 24.7983 62.7169 24.9215 63.0037C25.0235 63.2558 25.1255 63.5022 25.241 63.7389C25.2621 63.787 25.2814 63.8274 25.3102 63.8755C25.4257 64.1411 25.5547 64.3933 25.699 64.6454C25.7452 64.7416 25.7933 64.8436 25.8549 64.9379C25.9377 65.0803 26.0185 65.2247 26.107 65.3594C26.1686 65.4691 26.236 65.5769 26.311 65.6866C26.3861 65.8078 26.4669 65.9252 26.542 66.0407C26.848 66.4911 27.1887 66.928 27.5505 67.3437L28.736 69.02C28.5859 69.0334 28.4435 69.0469 28.2934 69.0469C28.1432 69.0604 27.9931 69.0604 27.843 69.0604C23.249 69.0604 19.2766 66.416 17.3617 62.5668C16.6881 60.6653 16.2724 58.6349 16.155 56.5294C16.1473 56.6371 16.1415 56.7411 16.1415 56.8489C16.1145 56.2561 16.1011 55.6556 16.1011 55.0513C16.1011 47.6108 17.7447 40.3994 21.0088 34.2464C21.2263 33.8384 21.4514 33.4343 21.6824 33.0339C22.2136 32.114 22.7794 31.221 23.3799 30.3414C25.2814 27.5489 27.5024 24.9911 29.9909 22.7162C30.1602 22.5603 30.3315 22.4025 30.5086 22.2524C30.7684 22.0214 31.0263 21.7962 31.2919 21.5788C31.3323 21.5384 31.3804 21.496 31.4285 21.4556C31.4766 21.421 31.5228 21.3805 31.5652 21.3478C32.0001 21.0341 32.4178 20.6992 32.82 20.3451C33.6033 19.6715 34.3327 18.9286 34.9948 18.1241C35.9359 17.0079 36.7404 15.7742 37.3871 14.4578C38.6688 11.9019 39.3906 9.0131 39.3906 5.95877C39.3906 5.66046 39.3829 5.36023 39.3636 5.05999C40.0584 2.06917 39.9295 0.19462 40.7262 0.0175577C42.0484 -0.27498 45.1701 4.35174 45.6801 9.58471C45.8014 10.8453 45.7821 12.181 45.6051 13.5378" fill="#0D2949"/>
</g>
</g>
<g opacity="0.69">
<mask id="mask3_395_6166" style="mask-type:luminance" maskUnits="userSpaceOnUse" x="36" y="39" width="35" height="41">
<path d="M70.7154 39.0884H36.8425V79.3316H70.7154V39.0884Z" fill="white"/>
</mask>
<g mask="url(#mask3_395_6166)">
<path d="M70.7134 49.7525C70.7134 49.9777 70.7134 50.2106 70.6999 50.4377C70.4555 61.4752 64.1602 71.0212 54.9933 75.8846C50.8574 78.0883 46.146 79.3297 41.1363 79.3297C39.6794 79.3297 38.2417 79.2257 36.8406 79.0179H37.0735C44.0424 79.0179 50.332 76.1291 54.8297 71.485C59.1177 67.0431 61.7544 60.9979 61.7544 54.335C61.7544 50.0759 60.6786 46.0688 58.7752 42.568C58.7578 42.5314 58.7328 42.4949 58.7136 42.4583C58.5423 42.135 58.4461 41.7674 58.4461 41.3748C58.4461 40.1084 59.468 39.0864 60.7344 39.0864C61.4003 39.0864 62.0008 39.3674 62.4165 39.8216C62.4242 39.8274 62.43 39.8332 62.43 39.8389C62.632 40.2181 62.8091 40.603 62.9919 40.9956C62.9996 41.0033 62.9996 41.0129 62.9996 41.0206C64.676 44.7274 65.6113 48.8518 65.6113 53.1898C65.6113 55.2953 65.3919 57.3508 64.9762 59.3274C66.2484 56.5136 67.0933 53.4728 67.4224 50.2722C67.4608 49.9296 67.4897 49.587 67.5147 49.2387C67.7707 48.6266 68.377 48.1974 69.0794 48.1974C69.8377 48.1974 70.4805 48.6921 70.7076 49.3734V49.3792C70.7134 49.5004 70.7134 49.6293 70.7134 49.7525Z" fill="#2C6C8D"/>
</g>
</g>
<path d="M37.6488 32.4623C37.0561 35.5725 36.1419 37.3335 37.8798 40.1184C39.6196 42.9013 41.013 39.77 41.1266 36.9851C41.242 34.2022 38.1107 30.0258 37.6469 32.4623" fill="#B1ADAC"/>
<path d="M11.9806 45.9517C11.9806 47.295 10.8913 48.3843 9.54795 48.3843C8.20458 48.3843 7.11719 47.295 7.11719 45.9517C7.11719 44.6083 9.54795 41.5386 9.54795 41.5386C9.54795 41.5386 11.9806 44.6083 11.9806 45.9517Z" fill="#2C6C8D"/>
<path d="M69.4874 41.3383C69.4874 42.4411 68.5924 43.3361 67.4896 43.3361C66.3869 43.3361 65.49 42.4411 65.49 41.3383C65.49 40.2355 67.4896 37.7124 67.4896 37.7124C67.4896 37.7124 69.4874 40.2355 69.4874 41.3383Z" fill="#2C6C8D"/>
<g opacity="0.69">
<mask id="mask4_395_6166" style="mask-type:luminance" maskUnits="userSpaceOnUse" x="17" y="62" width="36" height="15">
<path d="M52.4356 62.5645H17.3618V76.9431H52.4356V62.5645Z" fill="white"/>
</mask>
<g mask="url(#mask4_395_6166)">
<path d="M52.4375 71.1304C52.3682 71.1996 52.2951 71.267 52.2258 71.3286C48.3959 74.8179 43.2995 76.9445 37.7028 76.9445C37.1178 76.9445 36.5385 76.9234 35.9649 76.8753C27.337 76.1863 20.1352 70.4221 17.3618 62.5659C19.2787 66.417 23.2491 69.0595 27.8431 69.0595C28.1434 69.0595 28.4436 69.046 28.7362 69.0191C30.1527 70.5183 31.9733 71.8675 34.2828 72.8278C39.9257 75.1778 46.9582 74.3271 52.4375 71.1304Z" fill="#0D2949"/>
</g>
</g>
<g opacity="0.69">
<mask id="mask5_395_6166" style="mask-type:luminance" maskUnits="userSpaceOnUse" x="16" y="0" width="30" height="70">
<path d="M45.7552 0H16.1011V69.0582H45.7552V0Z" fill="white"/>
</mask>
<g mask="url(#mask5_395_6166)">
<path d="M45.6013 13.534C45.5397 14.0517 45.4511 14.5694 45.3491 15.089C45.1856 15.8647 44.9758 16.6499 44.7159 17.4197C44.2175 18.919 43.5439 20.3778 42.6778 21.727C42.2005 22.4776 41.6693 23.1993 41.0708 23.8671C41.0015 23.9499 40.9264 24.0307 40.8533 24.1115C40.4299 24.5754 39.9795 25.0103 39.5042 25.4203C38.0318 26.6809 36.8059 27.239 35.8243 27.8991C35.7974 27.9126 35.7762 27.9338 35.7493 27.9472C34.9987 28.4727 34.3924 29.0731 33.9363 30.1143C33.2627 31.6482 33.4455 32.8954 33.7381 34.156C34.0787 35.6071 34.5772 37.0737 34.1076 38.9867C33.2415 42.5511 30.0583 43.4518 27.4485 45.6381C26.8423 46.15 26.2707 46.7274 25.7587 47.4222C24.1363 49.6432 23.428 52.5339 23.428 55.4843C23.428 55.7576 23.4357 56.0367 23.4492 56.31C23.4627 56.5948 23.4838 56.8816 23.5108 57.1683C23.5108 57.2165 23.5108 57.2646 23.5185 57.3108C23.5262 57.3589 23.5262 57.3993 23.532 57.4474C23.532 57.4551 23.5397 57.4609 23.5397 57.482C23.607 58.1229 23.7032 58.7561 23.8322 59.3835C23.8861 59.6568 23.9419 59.9282 24.0093 60.1938C24.0304 60.2823 24.0497 60.3709 24.0689 60.4536C24.1382 60.7192 24.2133 60.979 24.2941 61.2369C24.3826 61.5372 24.4789 61.8374 24.5866 62.1299C24.6886 62.4225 24.7983 62.7169 24.9215 63.0037C25.0235 63.2481 25.1332 63.4945 25.241 63.7389C25.2622 63.787 25.2814 63.8274 25.3103 63.8755C25.4335 64.1354 25.5624 64.3933 25.699 64.6454C25.7664 64.7743 25.8357 64.8975 25.9108 65.0188C25.9704 65.1342 26.0397 65.2497 26.109 65.3594C26.1783 65.4691 26.2456 65.5769 26.313 65.6866C26.3881 65.8078 26.4631 65.9252 26.5439 66.0407C26.85 66.4911 27.1906 66.928 27.5524 67.3437L28.738 69.02C28.5879 69.0334 28.4454 69.0469 28.2953 69.0469C28.1452 69.0604 27.9951 69.0604 27.845 69.0604C23.251 69.0604 19.2786 66.416 17.3636 62.5668C16.69 60.6653 16.2743 58.6349 16.1569 56.5294C16.1492 56.6371 16.1434 56.7411 16.1434 56.8489C16.1165 56.2561 16.103 55.6556 16.103 55.0513C16.103 47.6108 17.7466 40.3994 21.0107 34.2464C21.2282 33.8384 21.4534 33.4343 21.6843 33.0339C22.2155 32.114 22.7814 31.221 23.3818 30.3414C25.2833 27.5489 27.5043 24.9911 29.9928 22.7162C30.1622 22.5603 30.3335 22.4025 30.5105 22.2524C30.7704 22.0214 31.0282 21.7962 31.2938 21.5788C31.3343 21.5384 31.3824 21.496 31.4305 21.4556C31.4786 21.421 31.5248 21.3805 31.5671 21.3478C32.0021 21.0341 32.4197 20.6992 32.822 20.3451C33.6053 19.6715 34.3347 18.9286 34.9968 18.1241C36.8097 15.9185 38.0434 13.2838 38.7863 10.5374C39.5369 7.75442 39.4522 4.94836 39.9025 2.13461C39.9872 1.60342 40.0199 0.175374 40.7282 0.0175577C42.0504 -0.27498 45.1721 4.35174 45.6821 9.58471C45.8033 10.8453 45.7841 12.181 45.607 13.5378" fill="#0D2949"/>
</g>
</g>
<g opacity="0.69">
<mask id="mask6_395_6166" style="mask-type:luminance" maskUnits="userSpaceOnUse" x="36" y="31" width="6" height="11">
<path d="M41.1324 31.729H36.8733V41.2018H41.1324V31.729Z" fill="white"/>
</mask>
<g mask="url(#mask6_395_6166)">
<path d="M37.6488 32.4623C37.0561 35.5725 36.1419 37.3335 37.8798 40.1184C39.6196 42.9013 41.013 39.77 41.1266 36.9851C41.242 34.2022 38.1107 30.0258 37.6469 32.4623" fill="#56AEBF"/>
</g>
</g>
<path d="M23.5088 57.168C23.5088 57.2161 23.5088 57.2642 23.5165 57.3104C23.5088 57.243 23.5031 57.1949 23.4954 57.168H23.5088Z" fill="#2C6C8D"/>
<path d="M25.6973 64.6431C25.7666 64.772 25.8339 64.8952 25.909 65.0164L25.8551 64.9356C25.7954 64.8394 25.7473 64.7374 25.6992 64.6431" fill="#2C6C8D"/>
<path d="M27.5504 67.3415C27.1885 66.9258 26.8479 66.4908 26.5419 66.0386C26.4611 65.9231 26.386 65.8076 26.3109 65.6844C26.2416 65.5747 26.1743 65.467 26.1069 65.3573C26.0376 65.2495 25.9703 65.1321 25.9087 65.0166L27.5504 67.3396V67.3415Z" fill="#2C6C8D"/>
</svg>
