<svg width="259" height="191" viewBox="0 0 259 191" fill="none" xmlns="http://www.w3.org/2000/svg">
<path d="M88.5892 52.8404H0V51.9956H87.5524C87.898 52.226 88.2436 52.4948 88.5892 52.8404Z" fill="#0095A5"/>
<path d="M195.111 51.9956C194.957 52.2644 194.804 52.5332 194.612 52.8404H157.44L157.939 51.9956H195.111Z" fill="#0095A5"/>
<path d="M247.758 52.8404H218.996C218.842 52.5332 218.689 52.2644 218.535 51.9956H247.45L247.758 52.8404Z" fill="#0095A5"/>
<path d="M0.537842 131.33H100.494C100.34 131.637 100.11 131.944 99.9175 132.213H0.537842V131.33Z" fill="#231F20"/>
<path d="M143.616 131.33L143.155 132.213H111.168L111.667 131.33H143.616Z" fill="#231F20"/>
<path d="M242.804 131.33C242.497 131.637 242.19 131.944 241.883 132.213H174.26C173.953 131.944 173.684 131.637 173.377 131.33H242.804Z" fill="#231F20"/>
<path d="M105.485 183.054C104.333 183.86 103.181 184.705 102.106 185.627C101.069 186.548 99.9938 187.508 98.957 188.507C97.3826 186.279 95.8466 184.091 94.2722 182.017C92.7746 179.905 91.2386 177.908 89.741 175.988L87.245 175.95C87.2834 177.831 87.3602 179.713 87.4754 181.595C87.629 183.515 87.8082 185.422 88.013 187.316C87.3602 187.239 86.7074 187.239 86.0546 187.201C85.4402 187.163 84.7874 187.163 84.173 187.163C83.5586 187.163 82.9058 187.163 82.3298 187.201C81.7538 187.239 81.1778 187.239 80.5633 187.316L79.5649 186.395L87.245 173.223V174.107C89.7794 173.915 91.6226 173.3 92.8898 172.225C94.1954 171.188 94.8482 169.691 94.8482 167.809C94.8482 165.927 94.2338 164.468 93.005 163.316L95.2706 159.476C96.1922 159.668 96.9602 159.86 97.6514 160.167C99.2258 160.897 100.455 161.818 101.299 163.086C102.144 164.276 102.567 165.659 102.567 167.233C102.567 169.038 102.144 170.535 101.299 171.687C100.416 172.916 99.149 173.761 97.4594 174.337C98.5346 175.566 99.725 176.91 101.031 178.331C102.336 179.751 103.795 181.326 105.485 183.054Z" fill="#0095A5"/>
<path d="M126.375 160.206C126.605 160.014 126.874 159.822 127.104 159.668L124.301 164.507L122.919 162.548C124.071 161.78 125.223 161.051 126.375 160.206Z" fill="#0095A5"/>
<path d="M249.294 123.803C247.374 126.568 245.185 129.102 242.804 131.329C242.497 131.636 242.19 131.944 241.883 132.212C232.475 140.814 220.302 145.576 207.092 145.576C194.343 145.576 182.746 140.507 174.26 132.212C173.953 131.944 173.684 131.636 173.377 131.329C166.081 123.88 161.204 113.972 160.167 102.99L143.616 131.329L143.156 132.212L135.322 145.576H103.373L111.168 132.212L111.667 131.329L157.441 52.8392L157.94 51.9944L165.773 38.5928H187.585V66.0489C182.9 75.457 179.175 84.6346 179.175 90.241C179.175 104.795 190.503 116.737 204.75 117.812C204.942 117.812 205.21 117.851 205.402 117.851C205.94 117.889 206.554 117.928 207.092 117.928C209.358 117.928 211.623 117.62 213.735 117.006C214.388 116.852 215.002 116.622 215.617 116.43C226.561 112.744 234.433 102.414 234.433 90.241C234.433 82.0234 226.407 65.9337 218.996 52.8392C218.842 52.532 218.689 52.2632 218.535 51.9944C218.266 51.6104 218.074 51.188 217.844 50.804L213.62 38.5928H242.843L247.451 51.9944L247.758 52.8392L256.052 76.801C261.62 92.8907 259.163 110.017 249.294 123.803Z" fill="#0095A5"/>
<path d="M100.493 131.328C100.34 131.636 100.109 131.943 99.9173 132.212C97.6517 135.629 95.0021 138.855 91.9685 141.85L88.2436 145.575L87.9364 145.882H0.5376V118.234H75.994C83.866 107.597 83.2516 95.1939 79.6804 86.5154C75.6484 76.7234 65.5491 66.2401 49.3826 66.2401H0V38.6304H49.3826C63.8211 38.6304 77.1076 43.4304 87.5524 51.9936C87.898 52.224 88.2436 52.4928 88.5892 52.8384C95.6933 58.9057 101.415 66.7393 105.217 75.9938C112.973 94.7715 111.015 115.008 100.493 131.328Z" fill="#0095A5"/>
<path fill-rule="evenodd" clip-rule="evenodd" d="M28.7229 179.328C28.7229 180.903 28.3005 182.285 27.4557 183.399C26.6109 184.551 25.3437 185.434 23.6541 186.125C22.6557 186.547 21.2733 186.816 19.5068 187.008C17.702 187.2 15.4364 187.315 12.71 187.315H5.29877L3.99316 186.087C4.10836 183.706 4.18517 181.44 4.22357 179.29C4.30037 177.139 4.33877 175.066 4.33877 173.031C4.33877 170.995 4.30037 168.96 4.22357 166.887C4.18517 164.774 4.10836 162.586 3.99316 160.358L5.41397 158.976H10.9436C13.5164 158.976 15.6668 159.053 17.3948 159.168C19.1612 159.283 20.39 159.437 21.1581 159.667C23.1165 160.205 24.6525 161.011 25.6509 162.048C26.6493 163.085 27.1485 164.314 27.1485 165.811C27.1485 167.309 26.5725 168.576 25.4205 169.651C24.2685 170.727 22.5789 171.533 20.3132 172.071C23.0781 172.647 25.1517 173.491 26.5725 174.759C28.0317 175.949 28.7229 177.485 28.7229 179.328ZM11.8652 172.147C14.3228 171.994 16.2044 171.495 17.5484 170.535C18.8796 169.587 19.5452 168.307 19.5452 166.695C19.5452 165.043 18.854 163.738 17.51 162.778C16.2044 161.741 14.3612 161.242 12.0188 161.165L11.8652 172.147ZM21.0045 179.52C21.0045 177.869 20.2364 176.525 18.662 175.603C17.0876 174.643 14.8604 174.067 11.8652 173.914L11.9804 185.127C14.9372 184.973 17.1644 184.359 18.7004 183.437C20.2364 182.464 21.0045 181.159 21.0045 179.52Z" fill="#0095A5"/>
<path d="M53.7986 179.406C54.7202 180.404 55.6418 181.364 56.6402 182.362C55.8338 183.015 54.9506 183.745 54.1058 184.513C53.1842 185.319 52.2242 186.126 51.2258 187.086C50.1506 186.087 49.1906 185.242 48.3074 184.474C47.4242 183.668 46.5794 182.977 45.7729 182.362C46.733 181.402 47.6546 180.404 48.5762 179.406C49.4978 178.446 50.381 177.447 51.2258 176.449C52.0706 177.447 52.9154 178.446 53.7986 179.406Z" fill="#0095A5"/>
<path d="M61.1709 170.651C63.8589 174.914 66.5853 179.138 69.3886 183.285C68.2749 183.976 67.1613 184.706 66.0093 185.55C64.8573 186.395 63.6285 187.355 62.3613 188.392C60.6333 185.243 58.8669 182.21 57.1005 179.176C55.2957 176.142 53.4909 173.147 51.6861 170.19C49.6893 173.032 47.654 175.912 45.6956 178.946C43.7372 181.979 41.7788 185.128 39.8204 188.392L37.3628 184.821C39.782 181.173 42.0092 177.832 43.8908 174.837C45.8492 171.88 47.654 169.038 49.3053 166.389L46.6172 162.549C47.8076 161.781 48.9597 161.051 50.0733 160.206C51.1869 159.4 52.3005 158.632 53.4141 157.787C55.9101 162.126 58.5213 166.427 61.1709 170.651Z" fill="#0095A5"/>
<path d="M87.9367 145.884H0.537842V145.577H88.2439L87.9367 145.884Z" fill="#0095A5"/>
<path d="M130.099 179.406C130.983 180.404 131.943 181.364 132.941 182.362C132.096 183.015 131.213 183.745 130.368 184.513C129.485 185.319 128.487 186.126 127.488 187.086C126.451 186.087 125.453 185.242 124.608 184.474C123.687 183.668 122.842 182.977 122.035 182.362C122.995 181.402 123.955 180.404 124.877 179.406C125.76 178.446 126.643 177.447 127.488 176.449C128.333 177.447 129.178 178.446 130.099 179.406Z" fill="#0095A5"/>
<path fill-rule="evenodd" clip-rule="evenodd" d="M105.485 183.053C104.333 183.859 103.181 184.704 102.106 185.626C101.069 186.547 99.9937 187.507 98.9569 188.506C97.3825 186.279 95.8464 184.09 94.272 182.016C92.7744 179.904 91.2384 177.907 89.7408 175.987L87.2448 175.949C87.2832 177.831 87.36 179.712 87.4752 181.594C87.6288 183.514 87.808 185.421 88.0128 187.315C87.36 187.239 86.7072 187.239 86.0544 187.2C85.44 187.162 84.7872 187.162 84.1728 187.162C83.5584 187.162 82.9056 187.162 82.3296 187.2C81.7536 187.239 81.1776 187.239 80.5632 187.315L79.5648 186.394L79.2576 186.087C79.3728 183.706 79.4496 181.44 79.488 179.29C79.5264 177.139 79.5648 175.066 79.5648 173.031C79.5648 170.995 79.5264 168.96 79.488 166.887C79.4496 164.774 79.3728 162.586 79.2576 160.358L80.64 158.976H86.016C89.7024 158.976 92.3136 159.053 93.888 159.245C94.3488 159.322 94.8096 159.36 95.2704 159.475C96.192 159.667 96.9601 159.859 97.6513 160.166C99.2257 160.896 100.454 161.818 101.299 163.085C102.144 164.275 102.566 165.658 102.566 167.232C102.566 169.037 102.144 170.535 101.299 171.687C100.416 172.915 99.1489 173.76 97.4593 174.336C98.5345 175.565 99.7249 176.909 101.03 178.33C102.336 179.751 103.795 181.325 105.485 183.053ZM94.848 167.808C94.848 165.927 94.2336 164.467 93.0048 163.315L92.9664 163.277C91.7376 162.163 89.9328 161.472 87.552 161.203C87.4368 163.469 87.36 165.581 87.3216 167.539C87.2832 169.459 87.2448 171.187 87.2448 172.685V174.106C89.7792 173.914 91.6224 173.299 92.8896 172.224C94.1952 171.187 94.848 169.69 94.848 167.808Z" fill="#0095A5"/>
<path d="M145.652 183.285C144.577 183.976 143.463 184.706 142.273 185.55C141.159 186.395 139.93 187.355 138.663 188.392C136.897 185.243 135.13 182.21 133.364 179.176C131.559 176.142 129.792 173.147 127.988 170.19C125.952 173.032 123.956 175.912 121.997 178.946C120 181.979 118.042 185.128 116.122 188.392L113.626 184.821C116.084 181.173 118.272 177.832 120.231 174.837C122.112 171.88 123.917 169.038 125.568 166.389L124.301 164.507L122.919 162.549C124.071 161.781 125.223 161.051 126.375 160.206C126.605 160.014 126.874 159.822 127.104 159.669C127.988 159.016 128.832 158.44 129.677 157.787C132.212 162.126 134.784 166.427 137.472 170.651C140.122 174.914 142.887 179.138 145.652 183.285Z" fill="#0095A5"/>
<path fill-rule="evenodd" clip-rule="evenodd" d="M182.938 172.723C182.938 177.664 181.351 181.325 178.177 183.706C175.028 186.087 170.151 187.315 163.584 187.315H156.864L155.559 186.087C155.636 183.706 155.712 181.44 155.789 179.29C155.828 177.139 155.866 175.066 155.866 173.031C155.866 170.995 155.828 168.96 155.789 166.848C155.712 164.775 155.636 162.586 155.559 160.358L156.903 158.976H164.045C166.861 158.976 169.281 159.117 171.303 159.398C173.261 159.667 174.797 160.128 175.949 160.704C178.33 161.907 180.097 163.495 181.249 165.466C182.362 167.424 182.938 169.843 182.938 172.723ZM174.183 172.647C174.183 168.96 173.338 166.195 171.533 164.237C169.767 162.355 167.156 161.357 163.7 161.28C163.584 163.2 163.546 165.159 163.508 167.155C163.431 169.114 163.431 171.034 163.431 173.031C163.431 174.989 163.431 176.947 163.508 178.906C163.546 180.903 163.584 182.861 163.7 184.858C167.117 184.666 169.729 183.514 171.533 181.44C173.338 179.367 174.183 176.448 174.183 172.647Z" fill="#0095A5"/>
<path d="M226.331 171.687L207.553 190.503L188.775 171.687L207.553 152.91L226.331 171.687Z" fill="#0095A5"/>
<path d="M209.012 106.869C178.753 107.944 191.425 78.7598 191.425 78.7598C190.503 102.222 209.012 106.869 209.012 106.869Z" fill="#0095A5"/>
<path d="M236.661 38.5928V119.694H176.718V38.5928H203.099C200.949 42.0488 198.069 46.7336 195.112 51.9944C194.958 52.2632 194.804 52.532 194.612 52.8392C192.232 57.0633 189.812 61.5945 187.585 66.0489C182.9 75.457 179.176 84.6346 179.176 90.241C179.176 104.795 190.504 116.737 204.75 117.812C204.942 117.812 205.211 117.851 205.403 117.851C205.902 117.889 206.325 117.889 206.824 117.889C209.205 117.889 211.509 117.544 213.736 117.006C214.389 116.852 215.003 116.622 215.617 116.43C226.561 112.744 234.434 102.414 234.434 90.241C234.434 82.0234 226.408 65.9337 218.997 52.8392C218.843 52.532 218.689 52.2632 218.536 51.9944C218.267 51.6104 218.075 51.188 217.845 50.804C215.118 46.0424 212.507 41.78 210.549 38.5928H236.661Z" fill="#0095A5"/>
<path d="M209.012 106.869C178.753 107.944 191.425 78.7598 191.425 78.7598C190.503 102.222 209.012 106.869 209.012 106.869Z" fill="#0095A5"/>
<path d="M209.012 106.869C178.753 107.944 191.425 78.7598 191.425 78.7598C190.503 102.222 209.012 106.869 209.012 106.869Z" fill="#0095A5"/>
<path d="M226.331 171.687L207.553 190.503L188.775 171.687L207.553 152.91L226.331 171.687Z" fill="#0095A5"/>
<path fill-rule="evenodd" clip-rule="evenodd" d="M28.7229 179.328C28.7229 180.903 28.3005 182.285 27.4557 183.399C26.6109 184.551 25.3437 185.434 23.6541 186.125C22.6557 186.547 21.2733 186.816 19.5068 187.008C17.702 187.2 15.4364 187.315 12.71 187.315H5.29877L3.99316 186.087C4.10836 183.706 4.18517 181.44 4.22357 179.29C4.30037 177.139 4.33877 175.066 4.33877 173.031C4.33877 170.995 4.30037 168.96 4.22357 166.887C4.18517 164.774 4.10836 162.586 3.99316 160.358L5.41397 158.976H10.9436C13.5164 158.976 15.6668 159.053 17.3948 159.168C19.1612 159.283 20.39 159.437 21.1581 159.667C23.1165 160.205 24.6525 161.011 25.6509 162.048C26.6493 163.085 27.1485 164.314 27.1485 165.811C27.1485 167.309 26.5725 168.576 25.4205 169.651C24.2685 170.727 22.5789 171.533 20.3132 172.071C23.0781 172.647 25.1517 173.491 26.5725 174.759C28.0317 175.949 28.7229 177.485 28.7229 179.328ZM11.8652 172.147C14.3228 171.994 16.2044 171.495 17.5484 170.535C18.8796 169.587 19.5452 168.307 19.5452 166.695C19.5452 165.043 18.854 163.738 17.51 162.778C16.2044 161.741 14.3612 161.242 12.0188 161.165L11.8652 172.147ZM21.0045 179.52C21.0045 177.869 20.2364 176.525 18.662 175.603C17.0876 174.643 14.8604 174.067 11.8652 173.914L11.9804 185.127C14.9372 184.973 17.1644 184.359 18.7004 183.437C20.2364 182.464 21.0045 181.159 21.0045 179.52Z" fill="#051E1E"/>
<path fill-rule="evenodd" clip-rule="evenodd" d="M69.3886 183.285C68.2749 183.976 67.1613 184.706 66.0093 185.55C64.8573 186.395 63.6285 187.355 62.3613 188.392C60.6333 185.243 58.8669 182.21 57.1005 179.176C55.2957 176.142 53.4909 173.147 51.6861 170.19C49.6893 173.032 47.654 175.912 45.6956 178.946C43.7372 181.979 41.7788 185.128 39.8204 188.392L37.3628 184.821C39.782 181.173 42.0092 177.832 43.8908 174.837C45.8492 171.88 47.654 169.038 49.3053 166.389L46.6172 162.549C47.8076 161.781 48.9597 161.051 50.0733 160.206C51.1869 159.4 52.3005 158.632 53.4141 157.787C55.9101 162.126 58.5213 166.427 61.1709 170.651C63.8589 174.914 66.5853 179.138 69.3886 183.285ZM56.6397 182.363C55.8333 183.016 54.9501 183.746 54.1053 184.514C53.1837 185.32 52.2237 186.126 51.2253 187.086C50.1501 186.088 49.1901 185.243 48.3068 184.475C47.4236 183.669 46.5788 182.978 45.7724 182.363C46.7324 181.403 47.654 180.405 48.5756 179.406C49.4972 178.446 50.3805 177.448 51.2253 176.45C52.0701 177.448 52.9149 178.446 53.7981 179.406C54.7197 180.405 55.6413 181.365 56.6397 182.363Z" fill="#051E1E"/>
<path fill-rule="evenodd" clip-rule="evenodd" d="M105.485 183.053C104.333 183.859 103.181 184.704 102.106 185.626C101.069 186.547 99.9937 187.507 98.9569 188.506C97.3825 186.279 95.8464 184.09 94.272 182.016C92.7744 179.904 91.2384 177.907 89.7408 175.987L87.2448 175.949C87.2832 177.831 87.36 179.712 87.4752 181.594C87.6288 183.514 87.808 185.421 88.0128 187.315C87.36 187.239 86.7072 187.239 86.0544 187.2C85.44 187.162 84.7872 187.162 84.1728 187.162C83.5584 187.162 82.9056 187.162 82.3296 187.2C81.7536 187.239 81.1776 187.239 80.5632 187.315L79.5648 186.394L79.2576 186.087C79.3728 183.706 79.4496 181.44 79.488 179.29C79.5264 177.139 79.5648 175.066 79.5648 173.031C79.5648 170.995 79.5264 168.96 79.488 166.887C79.4496 164.774 79.3728 162.586 79.2576 160.358L80.64 158.976H86.016C89.7024 158.976 92.3136 159.053 93.888 159.245C94.3488 159.322 94.8096 159.36 95.2704 159.475C96.192 159.667 96.9601 159.859 97.6513 160.166C99.2257 160.896 100.454 161.818 101.299 163.085C102.144 164.275 102.566 165.658 102.566 167.232C102.566 169.037 102.144 170.535 101.299 171.687C100.416 172.915 99.1489 173.76 97.4593 174.336C98.5345 175.565 99.7249 176.909 101.03 178.33C102.336 179.751 103.795 181.325 105.485 183.053ZM94.848 167.808C94.848 165.927 94.2336 164.467 93.0048 163.315L92.9664 163.277C91.7376 162.163 89.9328 161.472 87.552 161.203C87.4368 163.469 87.36 165.581 87.3216 167.539C87.2832 169.459 87.2448 171.187 87.2448 172.685V174.106C89.7792 173.914 91.6224 173.299 92.8896 172.224C94.1952 171.187 94.848 169.69 94.848 167.808Z" fill="#051E1E"/>
<path fill-rule="evenodd" clip-rule="evenodd" d="M145.652 183.285C144.577 183.976 143.463 184.706 142.273 185.55C141.159 186.395 139.93 187.355 138.663 188.392C136.897 185.243 135.13 182.21 133.364 179.176C131.559 176.142 129.792 173.147 127.988 170.19C125.952 173.032 123.956 175.912 121.997 178.946C120 181.979 118.042 185.128 116.122 188.392L113.626 184.821C116.084 181.173 118.272 177.832 120.231 174.837C122.112 171.88 123.917 169.038 125.568 166.389L124.301 164.507L122.919 162.549C124.071 161.781 125.223 161.051 126.375 160.206C126.605 160.014 126.874 159.822 127.104 159.669C127.988 159.016 128.832 158.44 129.677 157.787C132.212 162.126 134.784 166.427 137.472 170.651C140.122 174.914 142.887 179.138 145.652 183.285ZM132.941 182.363C132.096 183.016 131.213 183.746 130.368 184.514C129.485 185.32 128.487 186.126 127.488 187.086C126.452 186.088 125.453 185.243 124.608 184.475C123.687 183.669 122.842 182.978 122.036 182.363C122.996 181.403 123.956 180.405 124.877 179.406C125.76 178.446 126.644 177.448 127.488 176.45C128.333 177.448 129.178 178.446 130.1 179.406C130.983 180.405 131.943 181.365 132.941 182.363Z" fill="#051E1E"/>
<path fill-rule="evenodd" clip-rule="evenodd" d="M182.938 172.723C182.938 177.664 181.351 181.325 178.177 183.706C175.028 186.087 170.151 187.315 163.584 187.315H156.864L155.559 186.087C155.636 183.706 155.712 181.44 155.789 179.29C155.828 177.139 155.866 175.066 155.866 173.031C155.866 170.995 155.828 168.96 155.789 166.848C155.712 164.775 155.636 162.586 155.559 160.358L156.903 158.976H164.045C166.861 158.976 169.281 159.117 171.303 159.398C173.261 159.667 174.797 160.128 175.949 160.704C178.33 161.907 180.097 163.495 181.249 165.466C182.362 167.424 182.938 169.843 182.938 172.723ZM174.183 172.647C174.183 168.96 173.338 166.195 171.533 164.237C169.767 162.355 167.156 161.357 163.7 161.28C163.584 163.2 163.546 165.159 163.508 167.155C163.431 169.114 163.431 171.034 163.431 173.031C163.431 174.989 163.431 176.947 163.508 178.906C163.546 180.903 163.584 182.861 163.7 184.858C167.117 184.666 169.729 183.514 171.533 181.44C173.338 179.367 174.183 176.448 174.183 172.647Z" fill="#051E1E"/>
<path d="M147.495 14.0929C147.495 14.0929 118.465 20.2369 91.7766 35.213C91.7766 35.213 96.1926 20.5441 126.99 12.3265C157.095 4.30082 167.156 0 167.156 0C167.156 0 156.289 11.7121 147.495 14.0929Z" fill="#051E1E"/>
</svg>
