<svg width="214" height="238" viewBox="0 0 214 238" fill="none" xmlns="http://www.w3.org/2000/svg">
<path d="M147.652 72.6504C152.358 87.651 150.594 104.122 142.064 118.24C131.475 135.594 112.945 145.006 94.1209 145.006C84.1205 145.006 74.1201 142.359 65.0021 136.771C57.3548 132.064 51.1781 125.888 46.7661 118.829C49.1191 127.358 53.8252 135.3 60.5902 142.065C71.473 152.948 85.8853 158.536 100.298 158.536C114.71 158.536 129.122 152.948 140.005 142.065C158.535 123.535 161.476 94.7101 147.652 72.6504Z" fill="#0024BA"/>
<path d="M104.71 11.1769C105.102 12.1573 105.494 13.2358 105.886 14.4123C106.867 17.7458 107.553 21.2753 107.945 25.001C108.337 27.9423 108.534 30.9816 108.534 34.119C108.534 69.4145 83.8267 99.1215 50.5901 106.181C56.2766 108.141 62.1592 109.122 68.2378 109.122C99.1214 109.122 124.122 84.1209 124.122 53.2374C124.122 49.1196 123.632 45.0017 122.652 40.8839C122.456 40.0996 122.26 39.2172 122.063 38.2368C120.691 33.5307 118.73 29.1188 116.181 25.001L116.475 24.7068L111.769 17.3536L100.298 0H100.004C101.965 3.52955 103.533 7.15713 104.71 10.8828V11.1769Z" fill="#0074FF"/>
<path d="M92.6507 136.182C121.475 136.182 145.006 112.651 145.006 83.8267C145.006 75.297 142.947 67.3555 139.417 60.2964C139.613 62.0612 139.711 63.7279 139.711 65.2966C139.711 95.886 115.005 120.593 84.4151 120.593C70.591 120.593 57.6493 115.593 47.9431 106.769C46.9626 105.984 45.9822 105.102 45.0018 104.122C44.8057 103.729 44.5116 103.435 44.1194 103.239C44.3155 103.435 44.4135 103.631 44.4135 103.827C45.0018 105.004 45.492 106.082 45.8842 107.063C54.4139 124.417 72.3558 136.182 92.6507 136.182Z" fill="#0055D1"/>
<path d="M97.0624 38.8257C97.2585 36.4727 97.1604 34.1196 96.7683 31.7666C95.8859 25.2957 94.1211 19.4132 91.4739 13.8247C90.8857 20.0995 89.9053 26.0801 88.5327 31.7666C82.0618 57.6499 66.473 79.7096 45.2957 94.4161C74.4144 92.3572 97.0624 68.2386 97.0624 38.8257Z" fill="#52A1FF"/>
<path d="M130.005 45.2954C130.005 45.2954 135.888 59.7077 125.593 80.2968C125.593 80.2968 148.241 69.414 130.005 45.2954Z" fill="#0055D1"/>
<path d="M81.1797 28.8242L57.3552 65.5904C57.3552 65.5904 78.2384 55.2958 81.1797 28.8242Z" fill="#52A1FF"/>
<path fill-rule="evenodd" clip-rule="evenodd" d="M0 216.479V212.949H21.1773C21.7656 205.008 19.4125 199.713 12.6476 199.419C8.23562 199.419 5.00021 202.361 3.23544 204.714H2.94129V201.478C2.94129 196.772 7.05911 192.36 13.8241 192.36C27.9423 192.36 30.2953 205.89 27.354 221.479H5.00021C1.76479 221.479 0 219.714 0 216.479ZM10.0004 184.125C10.0004 182.066 11.7652 180.301 13.8241 180.301C15.883 180.301 17.3536 182.066 17.3536 184.125C17.3536 186.183 15.883 187.948 13.8241 187.948C11.471 187.948 10.0004 186.183 10.0004 184.125ZM36.1779 216.479V174.712H38.5309C41.4722 174.712 43.237 176.477 43.237 179.713V221.479H41.1781C37.9427 221.479 36.1779 219.714 36.1779 216.479ZM50.8843 216.479V212.949H71.7675C72.6499 205.008 70.0028 199.713 63.5319 199.419C58.8258 199.419 55.8845 202.361 53.8256 204.714H53.5315V201.478C53.5315 196.772 57.6493 192.36 64.4143 192.36C78.8266 192.36 80.8855 205.89 78.2384 221.479H55.5904C52.6491 221.479 50.8843 219.714 50.8843 216.479ZM60.5906 184.125C60.5906 182.066 62.3554 180.301 64.4143 180.301C66.4732 180.301 68.238 182.066 68.238 184.125C68.238 186.183 66.4732 187.948 64.4143 187.948C62.3554 187.948 60.5906 186.183 60.5906 184.125ZM75.8853 235.303V235.009C82.6503 234.126 88.827 230.891 88.827 217.655V197.066H90.8859C94.1214 197.066 95.8861 198.831 95.8861 202.066V218.538C95.8861 230.009 91.1801 237.656 83.5327 237.95C80.0032 237.95 77.356 236.774 75.8853 235.303ZM113.828 207.655C113.828 200.596 117.358 193.243 126.77 193.243H139.417V207.655C139.417 214.42 136.182 221.479 126.77 221.479C117.358 221.479 113.828 214.42 113.828 207.655ZM132.652 206.478V199.713H126.77C121.475 199.713 120.299 203.243 120.299 206.478C120.299 209.126 121.475 212.949 126.77 212.949C131.476 212.949 132.652 209.126 132.652 206.478ZM147.653 206.478V174.712H150.006C152.947 174.712 154.712 176.477 154.712 179.713V205.008C154.712 210.008 157.065 212.949 161.477 212.949C167.654 212.949 168.83 209.714 168.83 203.243V197.066H170.889C174.124 197.066 175.595 198.831 175.889 202.066V203.831C175.889 209.42 176.477 212.655 182.36 212.949C186.772 212.949 187.654 209.126 188.537 206.184C190.596 200.89 192.36 194.419 201.478 194.419C210.891 194.419 213.832 201.772 213.832 207.949V221.479H200.302C197.655 221.479 195.596 220.302 194.419 219.126C193.537 218.538 192.949 217.361 192.655 216.185C190.302 220.008 186.772 221.479 182.36 221.479C177.066 221.479 173.242 219.42 170.889 215.302C169.124 219.714 165.889 221.479 161.477 221.479C152.359 221.479 147.653 216.185 147.653 206.478ZM162.948 230.009C162.948 227.95 164.712 226.479 166.477 226.479C168.536 226.479 170.301 227.95 170.301 230.009C170.301 232.068 168.536 233.538 166.477 233.538C164.712 233.538 162.948 232.068 162.948 230.009ZM172.36 230.009C172.36 227.95 173.83 226.479 175.889 226.479C177.948 226.479 179.419 227.95 179.419 230.009C179.419 232.068 177.948 233.538 175.889 233.538C173.83 233.538 172.36 232.068 172.36 230.009ZM198.243 212.949H206.773V207.949C206.773 204.714 205.596 200.89 201.478 200.89C197.655 200.89 196.478 204.714 195.89 207.949C195.302 209.42 195.008 210.596 194.713 212.067C195.89 212.655 196.772 212.949 198.243 212.949Z" fill="black"/>
</svg>
