<svg width="51" height="65" viewBox="0 0 51 65" fill="none" xmlns="http://www.w3.org/2000/svg">
<g opacity="0.69">
<mask id="mask0_359_713" style="mask-type:luminance" maskUnits="userSpaceOnUse" x="0" y="40" width="26" height="25">
<path d="M25.7881 40.6711H0V64.09H25.7881V40.6711Z" fill="white"/>
</mask>
<g mask="url(#mask0_359_713)">
<path d="M25.7901 63.6856C24.4407 63.953 23.0436 64.0898 21.6175 64.0898C20.2888 64.0898 18.9829 63.9675 17.7226 63.7395C14.149 63.0927 10.8781 61.5692 8.14613 59.401C3.71026 55.8855 0.677702 50.6661 0.0454872 44.7316C0.0454872 44.7274 0.0392687 44.7233 0.0454872 44.7171C0.0247589 44.5699 0.0102445 44.4207 0.00195312 44.2735V44.2548C0.0703567 43.6226 0.605147 43.1251 1.25809 43.1251C1.38453 43.1251 1.50061 43.1438 1.61876 43.179C2.01675 43.2972 2.33389 43.6081 2.46033 44.0082V44.0123C2.47484 44.0911 2.49557 44.174 2.51423 44.2548V44.2652C3.07804 46.8169 4.1414 49.1882 5.59653 51.261C4.87726 49.4348 4.41916 47.4719 4.27614 45.4239C4.24297 44.97 4.22847 44.5077 4.22847 44.0455C4.22847 43.2723 4.272 42.5074 4.35905 41.7571V41.7343C4.36942 41.6472 4.38392 41.5643 4.39429 41.4752V41.4606C4.51659 41.0026 4.92494 40.673 5.42034 40.673C5.51362 40.673 5.60069 40.6813 5.6836 40.7061C6.13133 40.8181 6.46298 41.2119 6.48164 41.6949V41.7343C6.46712 41.8213 6.45676 41.9105 6.4464 41.9975V42.0017C6.37385 42.6733 6.34068 43.3552 6.34068 44.0475C6.34068 44.9098 6.39458 45.7618 6.5003 46.5951C6.8278 49.1115 7.62999 51.4787 8.81772 53.6054C9.31935 54.5071 9.8873 55.3631 10.5216 56.1653C10.5216 56.1653 10.5278 56.1653 10.5278 56.1695C11.8855 57.8982 13.521 59.3886 15.3658 60.5763C18.1517 62.3673 21.4185 63.4721 24.9236 63.6586C25.2097 63.6731 25.4978 63.6835 25.7901 63.6876" fill="#56AEBF"/>
</g>
</g>
<g opacity="0.69">
<mask id="mask1_359_713" style="mask-type:luminance" maskUnits="userSpaceOnUse" x="8" y="30" width="34" height="32">
<path d="M41.9004 30.0292H8.54639V61.2253H41.9004V30.0292Z" fill="white"/>
</mask>
<g mask="url(#mask1_359_713)">
<path d="M28.7029 34.5396C28.0292 32.1434 30.7197 30.0291 33.2134 30.0291C33.9824 30.0291 34.7099 30.224 35.3442 30.5598C35.4479 30.6406 35.5494 30.7277 35.6531 30.8085C35.6635 30.8189 35.6759 30.8313 35.6863 30.8355C35.935 31.0407 36.1796 31.2583 36.4118 31.476C36.4118 31.4822 36.418 31.4822 36.418 31.4822C36.5796 31.6335 36.7434 31.7848 36.9009 31.9486C39.4505 34.5085 41.1959 37.8769 41.7327 41.6287C41.8426 42.4205 41.9006 43.2331 41.9006 44.0581C41.9006 47.8555 40.6694 51.3627 38.5882 54.2046C38.5447 54.2626 38.5012 54.3228 38.4535 54.3787C38.3395 54.5363 38.2193 54.6876 38.0949 54.8389C37.927 55.0503 37.7529 55.2514 37.5808 55.4525C37.4129 55.6432 37.243 55.8214 37.0709 55.9997C36.8698 56.2049 36.6688 56.406 36.4594 56.6008C36.4594 56.6008 36.456 56.6029 36.4491 56.607C36.4387 56.6236 36.4263 56.634 36.4159 56.6443C36.3724 56.6816 36.3288 56.719 36.2915 56.7583C33.2445 59.5359 29.1879 61.2274 24.7375 61.2274C24.2712 61.2274 23.811 61.2108 23.355 61.1735C16.4897 60.6262 10.7583 56.0391 8.55078 49.7874C10.0743 52.851 13.2354 54.955 16.8919 54.955C17.01 54.955 17.1302 54.955 17.2505 54.9446C17.3686 54.9446 17.4889 54.9384 17.6029 54.9218C17.7334 54.9156 17.864 54.9052 17.9926 54.8886C22.6233 54.3456 26.2134 50.403 26.2134 45.6314C26.2134 43.43 25.4547 41.4132 24.1862 39.8191C24.1799 39.815 24.1758 39.8088 24.1696 39.8046C24.0763 39.6844 23.9789 39.5663 23.8773 39.4564C23.7467 39.245 23.6763 38.9962 23.6763 38.7309C23.6763 37.9557 24.3105 37.3276 25.0858 37.3276C25.0858 37.3276 25.6185 36.6332 26.7254 38.7579C27.8323 40.8804 29.4449 37.1659 28.707 34.5459" fill="#2C6C8D"/>
</g>
</g>
<g opacity="0.69">
<mask id="mask2_359_713" style="mask-type:luminance" maskUnits="userSpaceOnUse" x="7" y="0" width="25" height="55">
<path d="M31.138 0H7.54297V54.9508H31.138V0Z" fill="white"/>
</mask>
<g mask="url(#mask2_359_713)">
<path d="M31.0178 10.7682C30.9681 11.1807 30.8997 11.5932 30.8168 12.0057C30.6862 12.6234 30.5183 13.2473 30.313 13.8609C29.9171 15.0548 29.3803 16.2136 28.6921 17.2873C28.3128 17.8843 27.8899 18.4584 27.4132 18.9891C27.3593 19.0554 27.2992 19.1197 27.239 19.1839C26.9012 19.5529 26.5446 19.8991 26.1653 20.2245C24.9942 21.2277 24.0179 21.6713 23.2385 22.1978C23.2157 22.2082 23.2012 22.2248 23.1784 22.2351C22.5814 22.6539 22.0984 23.1306 21.7357 23.9597C21.1988 25.1806 21.346 26.1735 21.5781 27.1747C21.8497 28.3293 22.2456 29.4963 21.8704 31.0198C21.1822 33.8575 18.6492 34.5727 16.5722 36.3118C16.0893 36.718 15.6332 37.1782 15.227 37.7316C13.9377 39.4998 13.3718 41.7985 13.3718 44.1471C13.3718 44.3647 13.378 44.5865 13.3884 44.8042C13.3987 45.0322 13.4112 45.2581 13.4381 45.4861C13.4381 45.5234 13.4381 45.5628 13.4443 45.6001C13.4506 45.6374 13.4505 45.6706 13.4547 45.71C13.4547 45.7162 13.4609 45.7204 13.4609 45.7266V45.7369C13.5086 46.2468 13.5915 46.7505 13.6931 47.2501C13.7304 47.4677 13.7801 47.6833 13.834 47.8947C13.8506 47.9652 13.8651 48.0357 13.8817 48.1C13.9356 48.3114 13.9957 48.5187 14.06 48.7239C14.1304 48.9623 14.2071 49.2006 14.2942 49.4349C14.375 49.6732 14.4621 49.9013 14.5595 50.1293C14.6403 50.3303 14.7212 50.5252 14.8145 50.7159C14.8311 50.7532 14.8476 50.7864 14.8684 50.8237C14.9616 51.0351 15.0632 51.2362 15.1772 51.4372C15.2145 51.5139 15.2518 51.5948 15.3016 51.6715C15.3679 51.7855 15.4322 51.8995 15.5027 52.0073C15.5524 52.0943 15.6063 52.1814 15.6643 52.2684C15.7244 52.3659 15.7887 52.4591 15.8488 52.5503C16.0934 52.9089 16.3629 53.2551 16.651 53.5868L17.5941 54.9217C17.476 54.932 17.3599 54.9445 17.2418 54.9445C17.1215 54.9548 17.0034 54.9548 16.8832 54.9548C13.2288 54.9548 10.0656 52.8509 8.54208 49.7872C8.00521 48.2741 7.67563 46.6573 7.58235 44.9824C7.57613 45.0695 7.57199 45.1503 7.57199 45.2374C7.54919 44.7668 7.53882 44.288 7.53882 43.8071C7.53882 37.885 8.84678 32.1495 11.444 27.2514C11.6182 26.926 11.7964 26.6067 11.9809 26.2855C12.4038 25.5537 12.8536 24.8428 13.3303 24.1442C14.8435 21.9221 16.6116 19.8866 18.5912 18.077C18.7259 17.9527 18.8627 17.8283 19.0037 17.7081C19.2089 17.5236 19.4141 17.3453 19.6276 17.1712C19.6608 17.138 19.6981 17.1049 19.7375 17.0738C19.7748 17.0468 19.8121 17.0137 19.8452 16.9867C20.1914 16.738 20.5231 16.4706 20.8423 16.1887C21.4662 15.6518 22.0466 15.0611 22.5731 14.4206C23.3214 13.5313 23.9619 12.5509 24.476 11.5041C25.4958 9.47063 26.07 7.17185 26.07 4.74249C26.07 4.50412 26.0637 4.26574 26.0472 4.02736C26.6006 1.64775 26.497 0.155311 27.1313 0.0143582C28.1843 -0.219872 30.6675 3.46355 31.0738 7.62787C31.1712 8.63113 31.1546 9.69449 31.0137 10.7724" fill="#0D2949"/>
</g>
</g>
<g opacity="0.69">
<mask id="mask3_359_713" style="mask-type:luminance" maskUnits="userSpaceOnUse" x="24" y="31" width="27" height="33">
<path d="M50.9999 31.1029H24.0469V63.124H50.9999V31.1029Z" fill="white"/>
</mask>
<g mask="url(#mask3_359_713)">
<path d="M50.9999 39.5868C50.9999 39.7672 50.9999 39.9516 50.9896 40.132C50.7947 48.9146 45.7847 56.5094 38.4925 60.3794C35.2008 62.133 31.4531 63.1218 27.465 63.1218C26.3063 63.1218 25.1621 63.0389 24.0469 62.873H24.2314C29.7762 62.873 34.7821 60.5743 38.3598 56.8784C41.7717 53.3442 43.8715 48.5332 43.8715 43.2309C43.8715 39.8418 43.0154 36.6538 41.5001 33.8679C41.4856 33.8389 41.467 33.8098 41.4504 33.7808C41.3136 33.5238 41.2369 33.2315 41.2369 32.9185C41.2369 31.9111 42.0494 31.0965 43.0568 31.0965C43.5875 31.0965 44.0642 31.3204 44.3959 31.681C44.4021 31.6852 44.4063 31.6893 44.4063 31.6955C44.5679 31.9961 44.7089 32.305 44.854 32.6159C44.8602 32.6221 44.8602 32.6304 44.8602 32.6366C46.1951 35.5863 46.9393 38.8676 46.9393 42.3188C46.9393 43.9937 46.7631 45.6291 46.4335 47.2024C47.445 44.9638 48.1187 42.5427 48.3799 39.9972C48.4089 39.7236 48.4338 39.4521 48.4524 39.1743C48.6576 38.6872 49.1385 38.3452 49.6982 38.3452C50.3014 38.3452 50.8134 38.739 50.9937 39.28V39.2842C50.9979 39.3816 50.9979 39.4832 50.9979 39.5806" fill="#2C6C8D"/>
</g>
</g>
<path d="M24.6897 25.8296C24.2191 28.3045 23.4895 29.7058 24.8741 31.9216C26.2588 34.1354 27.3657 31.6439 27.459 29.4301C27.5523 27.2163 25.0607 23.8915 24.6897 25.8317" fill="#B1ADAC"/>
<path d="M4.26402 36.5627C4.26402 37.6323 3.39758 38.4988 2.328 38.4988C1.25842 38.4988 0.394043 37.6323 0.394043 36.5627C0.394043 35.4931 2.328 33.0513 2.328 33.0513C2.328 33.0513 4.26402 35.4931 4.26402 36.5627Z" fill="#2C6C8D"/>
<path d="M50.0237 32.8917C50.0237 33.7706 49.3127 34.4816 48.4339 34.4816C47.555 34.4816 46.844 33.7706 46.844 32.8917C46.844 32.0129 48.4339 30.0063 48.4339 30.0063C48.4339 30.0063 50.0237 32.0149 50.0237 32.8917Z" fill="#2C6C8D"/>
<g opacity="0.69">
<mask id="mask4_359_713" style="mask-type:luminance" maskUnits="userSpaceOnUse" x="8" y="49" width="29" height="13">
<path d="M36.455 49.7833H8.54639V61.2253H36.455V49.7833Z" fill="white"/>
</mask>
<g mask="url(#mask4_359_713)">
<path d="M36.4571 56.5987C36.4032 56.6526 36.3431 56.7065 36.2892 56.7562C33.2421 59.5338 29.1856 61.2253 24.7331 61.2253C24.2668 61.2253 23.8066 61.2087 23.3506 61.1714C16.4853 60.6241 10.754 56.037 8.54639 49.7853C10.072 52.8489 13.231 54.9529 16.8875 54.9529C17.1258 54.9529 17.3642 54.9425 17.5985 54.9197C18.7261 56.1136 20.175 57.1853 22.0115 57.9502C26.5013 59.8199 32.0979 59.1441 36.4571 56.6008" fill="#0D2949"/>
</g>
</g>
<g opacity="0.69">
<mask id="mask5_359_713" style="mask-type:luminance" maskUnits="userSpaceOnUse" x="7" y="0" width="25" height="55">
<path d="M31.138 0H7.54297V54.9508H31.138V0Z" fill="white"/>
</mask>
<g mask="url(#mask5_359_713)">
<path d="M31.0178 10.7683C30.9681 11.1808 30.8997 11.5933 30.8168 12.0058C30.6862 12.6235 30.5183 13.2474 30.313 13.861C29.9171 15.0549 29.3803 16.2136 28.6921 17.2874C28.3128 17.8843 27.8899 18.4585 27.4132 18.9892C27.3593 19.0555 27.2992 19.1197 27.239 19.184C26.9012 19.553 26.5446 19.8991 26.1653 20.2246C24.9942 21.2278 24.0179 21.6714 23.2385 22.1979C23.2157 22.2083 23.2012 22.2249 23.1784 22.2352C22.5814 22.6539 22.0984 23.1307 21.7357 23.9598C21.1988 25.1807 21.346 26.1736 21.5781 27.1748C21.8497 28.3294 22.2456 29.4964 21.8704 31.0199C21.1822 33.8576 18.6492 34.5727 16.5722 36.3118C16.0893 36.7181 15.6332 37.1783 15.227 37.7317C13.9377 39.4999 13.3718 41.7986 13.3718 44.1472C13.3718 44.3648 13.378 44.5866 13.3884 44.8042C13.3987 45.0322 13.4153 45.2582 13.4381 45.4862C13.4381 45.5235 13.4381 45.5629 13.4443 45.6002C13.4506 45.6375 13.4505 45.6707 13.4547 45.7101C13.4547 45.7163 13.4609 45.7204 13.4609 45.737C13.5148 46.2469 13.5915 46.7506 13.6931 47.2502C13.7366 47.4678 13.7801 47.6834 13.834 47.8948C13.8506 47.9653 13.8651 48.0358 13.8817 48.1C13.9356 48.3115 13.9957 48.5187 14.06 48.724C14.1304 48.9623 14.2071 49.2007 14.2942 49.435C14.375 49.6692 14.4621 49.9013 14.5595 50.1293C14.6403 50.3242 14.7274 50.519 14.8145 50.716C14.8311 50.7533 14.8476 50.7864 14.8684 50.8237C14.9658 51.029 15.0694 51.2362 15.1772 51.4373C15.2311 51.5389 15.285 51.6384 15.3451 51.7358C15.3928 51.8291 15.4488 51.9203 15.5027 52.0073C15.5566 52.0944 15.6104 52.1815 15.6643 52.2685C15.7244 52.3659 15.7825 52.4592 15.8488 52.5504C16.0934 52.909 16.3629 53.2552 16.651 53.5868L17.5941 54.9217C17.476 54.9321 17.3599 54.9445 17.2418 54.9445C17.1215 54.9549 17.0034 54.9549 16.8832 54.9549C13.2288 54.9549 10.0656 52.851 8.54208 49.7873C8.00521 48.2742 7.67563 46.6573 7.58235 44.9825C7.57613 45.0696 7.57199 45.1504 7.57199 45.2375C7.54919 44.7669 7.53882 44.2881 7.53882 43.8072C7.53882 37.8851 8.84678 32.1496 11.444 27.2515C11.6182 26.926 11.7964 26.6068 11.9809 26.2855C12.4038 25.5538 12.8536 24.8428 13.3303 24.1443C14.8435 21.9222 16.6116 19.8867 18.5912 18.0771C18.7259 17.9527 18.8627 17.8284 19.0037 17.7082C19.2089 17.5237 19.4141 17.3454 19.6276 17.1713C19.6608 17.1381 19.6981 17.105 19.7375 17.0739C19.7748 17.0469 19.8121 17.0137 19.8452 16.9868C20.1914 16.7381 20.5231 16.4707 20.8423 16.1888C21.4662 15.6519 22.0466 15.0611 22.5731 14.4206C24.0158 12.667 24.9983 10.5693 25.587 8.38454C26.184 6.17075 26.1156 3.93624 26.4742 1.69758C26.5405 1.27472 26.5674 0.13881 27.1313 0.0123669C28.1843 -0.221863 30.6675 3.46156 31.0738 7.62589C31.1712 8.62914 31.1546 9.6925 31.0137 10.7704" fill="#0D2949"/>
</g>
</g>
<g opacity="0.69">
<mask id="mask6_359_713" style="mask-type:luminance" maskUnits="userSpaceOnUse" x="24" y="25" width="4" height="8">
<path d="M27.4609 25.245H24.0718V32.7839H27.4609V25.245Z" fill="white"/>
</mask>
<g mask="url(#mask6_359_713)">
<path d="M24.6894 25.8296C24.2189 28.3045 23.4892 29.7058 24.8739 31.9216C26.2586 34.1354 27.3655 31.6439 27.4587 29.4301C27.552 27.2163 25.0605 23.8915 24.6894 25.8317" fill="#56AEBF"/>
</g>
</g>
<path d="M13.4383 45.4883C13.4383 45.5257 13.4383 45.565 13.4446 45.6023C13.4383 45.5485 13.4342 45.5111 13.428 45.4883H13.4383Z" fill="#2C6C8D"/>
<path d="M15.1772 51.4374C15.2311 51.541 15.285 51.6385 15.3451 51.7359L15.3016 51.6716C15.2539 51.5949 15.2146 51.5141 15.1772 51.4374Z" fill="#2C6C8D"/>
<path d="M16.6531 53.5848C16.3649 53.2553 16.0955 52.907 15.8509 52.5484C15.7866 52.4572 15.7265 52.3639 15.6664 52.2665C15.6125 52.1795 15.5586 52.0924 15.5047 52.0053C15.4508 51.9183 15.3969 51.8271 15.3472 51.7338L16.6531 53.5828V53.5848Z" fill="#2C6C8D"/>
</svg>
